<svg xmlns="http://www.w3.org/2000/svg" width="1080" height="1350" viewBox="0 0 1080 1350"><defs><linearGradient id="bg" x1="0" y1="0" x2="1" y2="1"><stop offset="0" stop-color="#6b2b3d"/><stop offset=".56" stop-color="#481c2d"/><stop offset="1" stop-color="#28131e"/></linearGradient><linearGradient id="sun" x1="0" y1="0" x2="1" y2="1"><stop stop-color="#d7ae63" stop-opacity=".54"/><stop offset="1" stop-color="#d7ae63" stop-opacity="0"/></linearGradient></defs><rect width="1080" height="1350" fill="url(#bg)"/><circle cx="845" cy="230" r="340" fill="url(#sun)"/><circle cx="860" cy="190" r="74" fill="#dfbd76" opacity=".83"/><path d="M0 965 L310 590 L480 765 L670 445 L1080 920 V1350 H0Z" fill="#241520" opacity=".65"/><path d="M0 1010 L310 650 L479 800 L669 505 L1080 952" fill="none" stroke="#e0bc75" stroke-opacity=".34" stroke-width="3"/><path d="M0 1100 H1080 M0 1154 H1080 M0 1208 H1080" stroke="#e7c98d" stroke-opacity=".12" stroke-width="2"/><rect x="72" y="62" width="936" height="1" fill="#efdaaa" opacity=".4"/><text x="72" y="46" fill="#e1bd77" font-family="Arial,sans-serif" font-size="18" letter-spacing="5">THE PROPERTY EDIT</text><text x="1008" y="46" text-anchor="end" fill="#f4e6c9" font-family="Arial,sans-serif" font-size="17" letter-spacing="3">POST 01</text><text x="72" y="158" fill="#eedcb8" font-family="Arial,sans-serif" font-size="18" letter-spacing="5">FOR THE LIFE YOU IMAGINE</text><text x="72" y="250" fill="#fbf4e6" font-family="Georgia,serif" font-size="88" font-weight="bold">4 BHK</text><text x="72" y="345" fill="#fbf4e6" font-family="Georgia,serif" font-size="88" font-weight="bold">Luxury Villa</text><rect x="72" y="408" width="56" height="4" fill="#d8b16a"/><text x="72" y="462" fill="#e5c98e" font-family="Arial,sans-serif" font-size="23" letter-spacing="2">SUSHANT GOLF CITY</text><text x="72" y="498" fill="#f7e8cb" font-family="Arial,sans-serif" font-size="23">Lucknow</text><rect x="72" y="1062" width="936" height="1" fill="#efdaaa" opacity=".48"/><text x="72" y="1113" fill="#e4c487" font-family="Arial,sans-serif" font-size="16" letter-spacing="4">ASKING FROM</text><text x="72" y="1170" fill="#fff6e5" font-family="Georgia,serif" font-size="49" font-weight="bold">₹2.5 Cr onwards</text><text x="72" y="1222" fill="#f5e7ca" font-family="Arial,sans-serif" font-size="18">3000 sq.ft  ·  Corner plot  ·  Ready to move</text><rect x="72" y="1270" width="50" height="3" fill="#d8b16a"/><text x="142" y="1280" fill="#fff5e2" font-family="Arial,sans-serif" font-size="18" letter-spacing="2">SUMIT SANGRAMPURKAR</text><text x="1008" y="1280" text-anchor="end" fill="#d9b875" font-family="Arial,sans-serif" font-size="17" letter-spacing="3">INQUIRE</text></svg>